<?xml version="1.0" standalone="no"?>
<!DOCTYPE svg PUBLIC "-//W3C//DTD SVG 20010904//EN"
 "http://www.w3.org/TR/2001/REC-SVG-20010904/DTD/svg10.dtd">
<svg version="1.0" xmlns="http://www.w3.org/2000/svg"
 width="512.000000pt" height="512.000000pt" viewBox="0 0 512.000000 512.000000"
 preserveAspectRatio="xMidYMid meet">

<g transform="translate(0.000000,512.000000) scale(0.100000,-0.100000)"
fill="#000000" stroke="none">
<path d="M2540 3764 c0 -68 -6 -101 -41 -236 l-10 -38 -329 0 -329 0 -11 -40
-11 -40 -52 0 c-62 0 -100 -17 -230 -99 -166 -105 -152 -103 -822 -111 -578
-7 -645 -12 -645 -45 0 -8 9 -106 21 -217 23 -223 19 -341 -20 -500 -10 -43
-16 -80 -13 -83 11 -10 84 -5 117 9 19 8 56 35 82 59 45 42 82 57 653 273
l605 229 90 -1 c90 -1 176 -19 262 -55 31 -13 48 -29 63 -58 41 -80 25 -122
-98 -254 -107 -114 -155 -203 -173 -315 -7 -43 -8 -76 -3 -81 21 -19 304 -121
335 -121 31 0 46 27 68 122 24 106 64 184 154 305 l62 83 148 0 147 0 10 -25
c9 -24 13 -25 94 -25 l85 0 15 -52 c8 -29 27 -96 41 -148 84 -302 158 -467
347 -767 l39 -62 200 149 199 150 -43 68 c-126 197 -257 459 -288 577 -31 122
-28 369 7 488 5 16 49 17 739 17 l734 0 45 58 45 59 77 6 c42 4 94 7 116 7
l38 0 0 80 0 79 -121 3 -122 3 -39 123 -39 122 -724 0 -725 0 0 30 c0 30 1 30
55 30 l55 0 0 50 c0 28 -3 50 -6 50 -11 0 -419 50 -457 56 -33 5 -45 16 -98
85 l-60 79 -119 0 -120 0 0 -76z m-96 -999 c9 -58 48 -105 87 -105 34 0 34 0
9 47 -11 21 -20 52 -20 70 l0 33 74 0 c74 0 75 0 105 -37 36 -44 38 -62 11
-120 l-19 -43 -192 0 c-178 0 -191 1 -184 18 4 9 21 54 37 100 28 76 33 82 58
82 25 0 28 -4 34 -45z"/>
</g>
</svg>
