<?xml version="1.0" standalone="no"?>
<!DOCTYPE svg PUBLIC "-//W3C//DTD SVG 20010904//EN"
 "http://www.w3.org/TR/2001/REC-SVG-20010904/DTD/svg10.dtd">
<svg version="1.0" xmlns="http://www.w3.org/2000/svg"
 width="512.000000pt" height="512.000000pt" viewBox="0 0 512.000000 512.000000"
 preserveAspectRatio="xMidYMid meet">

<g transform="translate(0.000000,512.000000) scale(0.100000,-0.100000)"
fill="#000000" stroke="none">
<path d="M3550 5103 c-583 -40 -1033 -276 -1179 -617 -23 -56 -26 -73 -26
-196 1 -117 4 -143 23 -192 36 -90 113 -199 202 -286 l81 -80 -10 -38 c-25
-93 -63 -308 -80 -457 -33 -268 -43 -494 -40 -827 l4 -315 -44 65 c-80 119
-134 184 -233 282 -344 340 -877 596 -1418 679 l-85 13 90 14 c51 8 175 15
285 15 166 2 211 -2 306 -21 253 -51 480 -148 722 -310 94 -62 102 -61 102 18
0 67 -26 166 -63 234 -44 83 -179 218 -297 295 -235 155 -375 197 -625 188
-212 -8 -425 -55 -689 -154 -148 -56 -404 -177 -504 -239 l-74 -46 41 -23
c110 -63 188 -157 328 -394 179 -303 274 -425 413 -530 161 -121 312 -186 460
-197 105 -8 193 12 300 67 105 54 180 119 305 265 60 69 116 129 126 134 36
20 235 -162 324 -295 153 -231 245 -573 245 -918 l0 -69 29 7 c49 11 196 23
205 18 10 -7 1 107 -20 260 -15 106 -15 111 6 180 52 170 153 308 300 407 244
165 613 220 951 142 l72 -17 -199 -1 c-294 -1 -487 -38 -609 -119 -78 -52 -84
-70 -48 -147 42 -90 127 -178 205 -214 57 -26 73 -28 168 -28 186 1 282 40
500 205 150 115 237 165 298 175 23 4 42 8 42 11 0 2 -12 27 -26 56 -114 228
-323 423 -547 511 -231 91 -493 100 -663 22 -69 -32 -133 -91 -157 -146 -30
-66 -27 -160 7 -235 30 -66 30 -65 15 -65 -6 0 -40 -14 -75 -30 -76 -37 -171
-111 -229 -179 l-42 -49 -6 181 c-10 267 -8 718 3 928 51 917 226 1422 595
1715 100 80 153 115 140 94 -5 -8 -35 -51 -66 -95 -213 -298 -446 -790 -474
-1001 -8 -62 -7 -62 140 -71 82 -4 115 -1 183 16 246 62 402 235 464 516 18
79 21 138 25 493 l5 402 -68 -2 c-38 -1 -89 -3 -114 -5z" fill="#fff"/>
<path d="M2604 975 c-204 -31 -372 -116 -531 -268 l-81 -78 -48 36 c-267 204
-650 153 -844 -113 l-43 -60 -40 29 c-64 46 -142 71 -227 70 -132 0 -239 -50
-311 -146 -33 -44 -43 -51 -67 -47 -43 6 -141 -15 -198 -43 -109 -53 -202
-186 -212 -302 l-4 -53 2561 0 2561 0 0 46 c0 227 -197 466 -436 529 -79 21
-224 21 -304 0 -41 -11 -66 -13 -68 -7 -2 6 -20 46 -41 89 -163 335 -592 436
-890 210 -64 -48 -66 -49 -90 -33 -198 127 -448 179 -687 141z" fill="#2dba6a"/>
</g>
</svg>
