<?xml version="1.0" standalone="no"?>
<!DOCTYPE svg PUBLIC "-//W3C//DTD SVG 20010904//EN"
 "http://www.w3.org/TR/2001/REC-SVG-20010904/DTD/svg10.dtd">
<svg version="1.0" xmlns="http://www.w3.org/2000/svg"
 width="512.000000pt" height="512.000000pt" viewBox="0 0 512.000000 512.000000"
 preserveAspectRatio="xMidYMid meet">

<g transform="translate(0.000000,512.000000) scale(0.100000,-0.100000)"
fill="#000000" stroke="none">
<path d="M2495 4978 c-230 -238 -435 -558 -520 -812 -61 -181 -81 -379 -54
-533 10 -57 9 -66 -6 -83 -38 -42 -64 -23 -118 85 -67 135 -90 241 -89 419 1
122 -1 130 -23 152 -32 32 -67 39 -103 20 -50 -26 -182 -303 -245 -516 -150
-501 -55 -985 265 -1347 199 -226 448 -370 751 -434 133 -29 367 -31 507 -5
429 78 813 377 990 770 108 242 145 514 100 737 -34 164 -174 522 -218 555
-28 22 -80 17 -107 -11 -19 -18 -25 -35 -25 -67 0 -141 -42 -331 -100 -456
-52 -110 -76 -142 -106 -142 -35 0 -38 17 -19 106 20 95 14 166 -22 274 -46
141 -123 259 -301 465 -262 303 -372 532 -372 777 0 74 -27 108 -87 108 -33 0
-45 -8 -98 -62z" fill="#ba612d"/>
<path d="M737 2185 c-73 -27 -145 -92 -180 -161 -40 -77 -37 -205 4 -286 25
-49 87 -112 136 -136 21 -11 268 -115 548 -231 281 -117 514 -216 518 -220 4
-4 -214 -99 -485 -211 -619 -255 -608 -250 -656 -298 -202 -202 -66 -544 216
-544 84 0 27 -22 988 375 l791 327 809 -336 c445 -185 834 -345 864 -356 146
-52 318 19 387 160 24 49 28 69 28 142 0 99 -23 158 -86 221 -52 52 -81 66
-657 304 -298 124 -498 212 -490 216 7 4 249 105 538 224 289 119 540 226 557
236 150 93 188 320 78 465 -60 78 -188 132 -286 121 -32 -4 -342 -127 -891
-353 -463 -191 -846 -347 -852 -347 -6 0 -387 157 -846 349 l-835 348 -80 3
c-52 2 -93 -3 -118 -12z" fill="#fff"/>
</g>
</svg>
